<svg width="9" height="9" viewBox="0 0 9 9" fill="none" xmlns="http://www.w3.org/2000/svg">
<path d="M0.756086 6.41677C1.68882 6.42821 2.4687 7.1443 2.56505 8.07496C2.07728 8.379 1.0281 8.64755 0.389496 8.79157C0.146736 8.84628 -0.0584784 8.62408 0.0152136 8.38729C0.185719 7.83942 0.473667 6.97659 0.756086 6.41677Z" fill="#858699"/>
<path d="M8.60867 1.99194C8.91549 1.48827 8.8533 0.819404 8.42204 0.382723C7.98659 -0.0581387 7.3175 -0.118125 6.81854 0.202757C7.22679 0.961626 7.84938 1.58398 8.60867 1.99194Z" fill="#858699"/>
<path d="M5.99894 0.984087L1.57049 5.43835C2.44155 5.6981 3.14767 6.35274 3.47598 7.2001L7.83753 2.81781C7.08697 2.36221 6.45639 1.73323 5.99894 0.984087Z" fill="#858699"/>
</svg>
