<svg width="100" height="100" viewBox="0 0 100 100" fill="none" xmlns="http://www.w3.org/2000/svg">
<path d="M26.5625 6.25C21.1753 6.25 16.0087 8.39006 12.1994 12.1994C8.39006 16.0087 6.25 21.1753 6.25 26.5625V54.6875C6.25 60.0747 8.39006 65.2413 12.1994 69.0506C16.0087 72.8599 21.1753 75 26.5625 75H54.6875C60.0747 75 65.2413 72.8599 69.0506 69.0506C72.8599 65.2413 75 60.0747 75 54.6875V26.5625C75 21.1753 72.8599 16.0087 69.0506 12.1994C65.2413 8.39006 60.0747 6.25 54.6875 6.25H26.5625ZM15.625 26.5625C15.625 20.525 20.525 15.625 26.5625 15.625H54.6875C60.725 15.625 65.625 20.525 65.625 26.5625V54.6875C65.625 57.5883 64.4727 60.3703 62.4215 62.4215C60.3703 64.4727 57.5883 65.625 54.6875 65.625H26.5625C23.6617 65.625 20.8797 64.4727 18.8285 62.4215C16.7773 60.3703 15.625 57.5883 15.625 54.6875V26.5625ZM31.5188 88.35C28.475 85.5312 31.125 81.25 35.2812 81.25C36.8062 81.25 38.2312 81.9062 39.5187 82.7188C41.2 83.7688 43.1875 84.375 45.3125 84.375H73.4375C76.4187 84.375 79.125 83.1875 81.0938 81.25H81.25V81.0938C83.1875 79.1188 84.375 76.4187 84.375 73.4375V45.3125C84.375 43.1875 83.7688 41.2 82.7188 39.5187C81.9062 38.2312 81.25 36.8062 81.25 35.2812C81.25 31.1313 85.525 28.4688 88.35 31.5188C91.7 35.1438 93.75 39.9875 93.75 45.3125V73.4375C93.75 76.105 93.2246 78.7463 92.2038 81.2108C91.183 83.6752 89.6868 85.9144 87.8006 87.8006C85.9144 89.6868 83.6752 91.183 81.2108 92.2038C78.7463 93.2246 76.105 93.75 73.4375 93.75H45.3125C40.1974 93.7579 35.269 91.8285 31.5188 88.35Z" fill="#858699"/>
</svg>
