<svg width="10" height="10" viewBox="0 0 10 10" fill="none" xmlns="http://www.w3.org/2000/svg">
<path fill-rule="evenodd" clip-rule="evenodd" d="M7.73044 4.0625C7.903 4.0625 8.04294 4.20241 8.04294 4.375C8.04294 4.3991 8.04013 4.42312 8.03463 4.44658L7.10175 8.41131C6.96887 8.97594 6.46506 9.375 5.88498 9.375H4.11502C3.53496 9.375 3.03111 8.97594 2.89825 8.41131L1.96537 4.44658C1.92584 4.27858 2.02999 4.11034 2.19799 4.07081C2.22144 4.06529 2.24546 4.0625 2.26956 4.0625H7.73044ZM5.3125 0.625C6.17544 0.625 6.875 1.32456 6.875 2.1875H8.125C8.47019 2.1875 8.75 2.46732 8.75 2.8125V3.125C8.75 3.29759 8.61006 3.4375 8.4375 3.4375H1.5625C1.38991 3.4375 1.25 3.29759 1.25 3.125V2.8125C1.25 2.46732 1.52982 2.1875 1.875 2.1875H3.125C3.125 1.32456 3.82456 0.625 4.6875 0.625H5.3125ZM5.3125 1.5625H4.6875C4.34232 1.5625 4.0625 1.84232 4.0625 2.1875H5.9375C5.9375 1.84232 5.65768 1.5625 5.3125 1.5625Z" fill="#858699"/>
</svg>
